<svg xmlns="http://www.w3.org/2000/svg" viewBox="0 0 52 52" width="52" height="52">
  <circle cx="26" cy="26" r="26" fill="#10B981"/>
  <path d="M18 16c0-2 2-4 4-4h2l4 4v6c0 2-1 4-3 5l-1 3h-4l-1-3c-2-1-3-3-3-5v-6z" fill="#fff"/>
  <circle cx="26" cy="24" r="3" fill="#10B981"/>
  <circle cx="16" cy="26" r="2" fill="#fff"/>
  <circle cx="36" cy="24" r="2" fill="#fff"/>
  <path d="M32 20h4v4h-4z" fill="#fff"/>
  <path d="M16 22l-3 3 1 1 3-3z" fill="#fff"/>
  <path d="M36 18h6l-2 6h-4z" fill="#fff"/>
</svg>
