<svg xmlns="http://www.w3.org/2000/svg" viewBox="0 0 52 52" width="52" height="52">
  <circle cx="26" cy="26" r="26" fill="#F97316"/>
  <path d="M26 6c-1 0-2 1-2 2v6h4V8c0-1-1-2-2-2z" fill="#fff"/>
  <path d="M22 14c-1 0-2 1-2 2l-3 8-2-1c-1 0-2 1-2 2s1 2 2 2l2-1 3 8c1 2 3 3 5 3s4-1 5-3l3-8 2 1c1 0 2-1 2-2s-1-2-2-2l-2 1-3-8c-1-1-2-2-4-2z" fill="#fff"/>
  <circle cx="24" cy="30" r="2" fill="#F97316"/>
  <circle cx="20" cy="12" r="1.5" fill="#fff" opacity="0.6"/>
  <circle cx="32" cy="10" r="1" fill="#fff" opacity="0.5"/>
</svg>
